<svg id="Layer_1" data-name="Layer 1" xmlns="http://www.w3.org/2000/svg" xmlns:xlink="http://www.w3.org/1999/xlink" viewBox="0 0 711.08 4767.4">
  <defs>

    <linearGradient id="linear-gradient" x1="379.55" y1="-98" x2="866.55" y2="389" gradientUnits="userSpaceOnUse">
      <stop offset="0.16" stop-color="#f12711"/>
      <stop offset="0.28" stop-color="#f24213"/>
      <stop offset="0.51" stop-color="#f37115"/>
      <stop offset="0.72" stop-color="#f49317"/>
      <stop offset="0.89" stop-color="#f5a719"/>
      <stop offset="1" stop-color="#f5af19"/>
    </linearGradient>
    <linearGradient id="linear-gradient-2" x1="465.15" y1="274.03" x2="796.16" y2="-56.98" xlink:href="#linear-gradient"/>
    <linearGradient id="linear-gradient-3" x1="328.57" y1="141.4" x2="917.54" y2="141.4" xlink:href="#linear-gradient"/>
    <radialGradient id="radial-gradient" cx="352.09" cy="632.58" r="37.05" gradientTransform="matrix(0.87, -0.87, -1.96, -1.96, 1668.35, 2081.84)" gradientUnits="userSpaceOnUse">
      <stop offset="0" stop-color="#fff"/>
      <stop offset="1" stop-color="#fff" stop-opacity="0"/>
    </radialGradient>
    <radialGradient id="radial-gradient-2" cx="48.51" cy="1058.98" r="37.05" gradientTransform="matrix(-0.87, 0.87, 1.96, 1.96, -1446.6, -1729.84)" xlink:href="#radial-gradient"/>
    <radialGradient id="radial-gradient-3" cx="209.78" cy="1357.34" r="21.5" gradientTransform="matrix(0, 2.87, 1, 0, -696.28, -140.46)" gradientUnits="userSpaceOnUse">
      <stop offset="0" stop-color="#f7f7f7"/>
      <stop offset="1" stop-color="#e1e1e1"/>
    </radialGradient>
    <radialGradient id="radial-gradient-4" cx="181.73" cy="557.05" r="37.05" xlink:href="#radial-gradient"/>
    <radialGradient id="radial-gradient-5" cx="218.87" cy="1134.51" r="37.05" gradientTransform="matrix(-0.87, 0.87, 1.96, 1.96, -1446.6, -1729.84)" xlink:href="#radial-gradient"/>
    <radialGradient id="radial-gradient-6" cx="312.91" cy="1357.34" r="21.5" xlink:href="#radial-gradient-3"/>
    <radialGradient id="radial-gradient-7" cx="11.37" cy="481.53" r="37.05" xlink:href="#radial-gradient"/>
    <radialGradient id="radial-gradient-8" cx="389.23" cy="1210.04" r="37.05" gradientTransform="matrix(-0.87, 0.87, 1.96, 1.96, -1446.6, -1729.84)" xlink:href="#radial-gradient"/>
    <radialGradient id="radial-gradient-9" cx="416.04" cy="1357.34" r="21.5" xlink:href="#radial-gradient-3"/>
    <radialGradient id="radial-gradient-10" cx="-158.99" cy="406" r="37.05" xlink:href="#radial-gradient"/>
    <radialGradient id="radial-gradient-11" cx="559.59" cy="1285.56" r="37.05" gradientTransform="matrix(-0.87, 0.87, 1.96, 1.96, -1446.6, -1729.84)" xlink:href="#radial-gradient"/>
    <radialGradient id="radial-gradient-12" cx="519.18" cy="1357.34" r="21.5" xlink:href="#radial-gradient-3"/>
    <radialGradient id="radial-gradient-13" cx="-329.34" cy="330.48" r="37.05" xlink:href="#radial-gradient"/>
    <radialGradient id="radial-gradient-14" cx="729.95" cy="1361.09" r="37.05" gradientTransform="matrix(-0.87, 0.87, 1.96, 1.96, -1446.6, -1729.84)" xlink:href="#radial-gradient"/>
    <radialGradient id="radial-gradient-15" cx="622.31" cy="1357.34" r="21.5" xlink:href="#radial-gradient-3"/>
    <radialGradient id="radial-gradient-16" cx="-499.7" cy="254.95" r="37.05" xlink:href="#radial-gradient"/>
    <radialGradient id="radial-gradient-17" cx="900.31" cy="1436.61" r="37.05" gradientTransform="matrix(-0.87, 0.87, 1.96, 1.96, -1446.6, -1729.84)" xlink:href="#radial-gradient"/>
    <radialGradient id="radial-gradient-18" cx="725.44" cy="1357.34" r="21.5" xlink:href="#radial-gradient-3"/>
    <radialGradient id="radial-gradient-19" cx="-670.06" cy="179.42" r="37.05" xlink:href="#radial-gradient"/>
    <radialGradient id="radial-gradient-20" cx="1070.67" cy="1512.14" r="37.05" gradientTransform="matrix(-0.87, 0.87, 1.96, 1.96, -1446.6, -1729.84)" xlink:href="#radial-gradient"/>
    <radialGradient id="radial-gradient-21" cx="828.57" cy="1357.34" r="21.5" xlink:href="#radial-gradient-3"/>
    <radialGradient id="radial-gradient-22" cx="-840.42" cy="103.9" r="37.05" xlink:href="#radial-gradient"/>
    <radialGradient id="radial-gradient-23" cx="1241.03" cy="1587.66" r="37.05" gradientTransform="matrix(-0.87, 0.87, 1.96, 1.96, -1446.6, -1729.84)" xlink:href="#radial-gradient"/>
    <radialGradient id="radial-gradient-24" cx="931.71" cy="1357.34" r="21.5" xlink:href="#radial-gradient-3"/>
    <radialGradient id="radial-gradient-25" cx="-1010.78" cy="28.37" r="37.05" xlink:href="#radial-gradient"/>
    <radialGradient id="radial-gradient-26" cx="1411.39" cy="1663.19" r="37.05" gradientTransform="matrix(-0.87, 0.87, 1.96, 1.96, -1446.6, -1729.84)" xlink:href="#radial-gradient"/>
    <radialGradient id="radial-gradient-27" cx="1034.84" cy="1357.34" r="21.5" xlink:href="#radial-gradient-3"/>
    <radialGradient id="radial-gradient-28" cx="-1181.14" cy="-47.15" r="37.05" xlink:href="#radial-gradient"/>
    <radialGradient id="radial-gradient-29" cx="1581.75" cy="1738.72" r="37.05" gradientTransform="matrix(-0.87, 0.87, 1.96, 1.96, -1446.6, -1729.84)" xlink:href="#radial-gradient"/>
    <radialGradient id="radial-gradient-30" cx="1137.97" cy="1357.34" r="21.5" xlink:href="#radial-gradient-3"/>
    <radialGradient id="radial-gradient-31" cx="-1351.5" cy="-122.68" r="37.05" xlink:href="#radial-gradient"/>
    <radialGradient id="radial-gradient-32" cx="1752.11" cy="1814.24" r="37.05" gradientTransform="matrix(-0.87, 0.87, 1.96, 1.96, -1446.6, -1729.84)" xlink:href="#radial-gradient"/>
    <radialGradient id="radial-gradient-33" cx="1241.1" cy="1357.34" r="21.5" xlink:href="#radial-gradient-3"/>
    <radialGradient id="radial-gradient-34" cx="-1521.86" cy="-198.21" r="37.05" xlink:href="#radial-gradient"/>
    <radialGradient id="radial-gradient-35" cx="1922.47" cy="1889.77" r="37.05" gradientTransform="matrix(-0.87, 0.87, 1.96, 1.96, -1446.6, -1729.84)" xlink:href="#radial-gradient"/>
    <radialGradient id="radial-gradient-36" cx="1344.24" cy="1357.34" r="21.5" xlink:href="#radial-gradient-3"/>
    <radialGradient id="radial-gradient-37" cx="-1692.22" cy="-273.73" r="37.05" xlink:href="#radial-gradient"/>
    <radialGradient id="radial-gradient-38" cx="2092.83" cy="1965.29" r="37.05" gradientTransform="matrix(-0.87, 0.87, 1.96, 1.96, -1446.6, -1729.84)" xlink:href="#radial-gradient"/>
    <radialGradient id="radial-gradient-39" cx="1447.37" cy="1357.34" r="21.5" xlink:href="#radial-gradient-3"/>
    <radialGradient id="radial-gradient-40" cx="-1862.58" cy="-349.26" r="37.05" xlink:href="#radial-gradient"/>
    <radialGradient id="radial-gradient-41" cx="2263.19" cy="2040.82" r="37.05" gradientTransform="matrix(-0.87, 0.87, 1.96, 1.96, -1446.6, -1729.84)" xlink:href="#radial-gradient"/>
    <radialGradient id="radial-gradient-42" cx="1550.5" cy="1357.34" r="21.5" xlink:href="#radial-gradient-3"/>
    <radialGradient id="radial-gradient-43" cx="-2032.94" cy="-424.78" r="37.05" xlink:href="#radial-gradient"/>
    <radialGradient id="radial-gradient-44" cx="2433.55" cy="2116.34" r="37.05" gradientTransform="matrix(-0.87, 0.87, 1.96, 1.96, -1446.6, -1729.84)" xlink:href="#radial-gradient"/>
    <radialGradient id="radial-gradient-45" cx="1653.64" cy="1357.34" r="21.5" xlink:href="#radial-gradient-3"/>
  </defs>
  <title>timeline</title>
  <line id="line" class="cls-1" x1="407.4" y1="291" x2="407.4" y2="4686"/>
  <g id="albums">
    <g id="alb1">
      <rect class="rectangle" x="0.4" y="389.5" width="407.5" height="250"/>
    </g>
    <g id="alb2">
      <rect id="rectangle-14" data-name="rectangle" class="rectangle" x="0.4" y="684.5" width="407.5" height="250"/>
    </g>
    <g id="alb3">
      <rect id="rectangle-13" data-name="rectangle" class="rectangle" x="0.4" y="986.5" width="407.5" height="250"/>
    </g>
    <g id="alb4">
      <rect id="rectangle-12" data-name="rectangle" class="rectangle" x="0.4" y="1279.5" width="407.5" height="250"/>
    </g>
    <g id="alb5">
      <rect id="rectangle-11" data-name="rectangle" class="rectangle" x="0.4" y="1574.5" width="407.5" height="250"/>
    </g>
    <g id="alb6">
      <rect id="rectangle-10" data-name="rectangle" class="rectangle" x="0.4" y="1870.5" width="407.5" height="250"/>
    </g>
    <g id="alb7">
      <rect id="rectangle-9" data-name="rectangle" class="rectangle" x="0.4" y="2166.5" width="407.5" height="250"/>
    </g>
    <g id="alb8">
      <rect id="rectangle-8" data-name="rectangle" class="rectangle" x="0.4" y="2462.5" width="407.5" height="250"/>
    </g>
    <g id="alb9">
      <rect id="rectangle-7" data-name="rectangle" class="rectangle" x="0.4" y="2759.5" width="407.5" height="250"/>
    </g>
    <g id="alb10">
      <rect id="rectangle-6" data-name="rectangle" class="rectangle" x="0.4" y="3054.5" width="407.5" height="250"/>
    </g>
    <g id="alb11">
      <rect id="rectangle-5" data-name="rectangle" class="rectangle" x="0.4" y="3350.5" width="407.5" height="250"/>
    </g>
    <g id="alb12">
      <rect id="rectangle-4" data-name="rectangle" class="rectangle" x="0.4" y="3647.5" width="407.5" height="250"/>
    </g>
    <g id="alb13">
      <rect id="rectangle-3" data-name="rectangle" class="rectangle" x="0.4" y="3944.5" width="407.5" height="250"/>
    </g>
    <g id="alb14">
      <rect id="rectangle-2" data-name="rectangle" class="rectangle" x="0.4" y="4240.5" width="407.5" height="250"/>
    </g>
    <g id="alb15">
      <rect id="rectangle-1" class="rectangle" x="0.4" y="4536.5" width="407.5" height="250"/>
    </g>
  </g>
  <g id="title">
    <path class="cls-9" d="M963.55,1V290h-681V1h681m1-1h-683V291h683V0Z" transform="translate(-253.47)"/>
    <g id="layer1">
      <g id="g2692">
        <path id="path2694" class="cls-10" d="M519.54,237.3c-9.23-.94-26.63-5-37-8.54-22.88-7.91-45.13-20.28-74.74-41.57-7.83-5.63-15.26-10.67-16.5-11.19a81.74,81.74,0,0,0-10.61-2.44,66.32,66.32,0,0,1-41.53-26.95c-13.63-19.84-13.43-51.7.46-72.51A67.37,67.37,0,0,1,364.93,52a66.4,66.4,0,0,1,30.9-7c36.85-.07,62.62,23.08,65.29,58.65,2.14,28.63-11.08,52.38-36.33,65.21-2.34,1.19-4.25,2.72-4.25,3.39,0,2.95,31.62,25.32,50.33,35.62,25.34,13.95,43.38,20,62.17,20.8,13.94.6,22.08-.88,32.23-5.87,6.42-3.16,9-3,7.71.48-.77,2-9.53,7.82-15,10C548,237.12,533.09,238.69,519.54,237.3Zm-104-73.38c19.71-9.08,29.15-33.12,24.63-62.72-1.58-10.39-5.83-22.8-9.78-28.59C426.16,66.45,419,59.77,413.5,57c-19.42-9.9-43.75-4.08-55.23,13.21-12.78,19.26-12,54.85,1.62,76.1,9.56,14.89,23.12,22,40.32,21.28C406.85,167.28,409.71,166.6,415.52,163.92Zm254,8.2c0-6.05-.58-6.14-39.81-6.14-27.62,0-35.27-.27-34.94-1.23.22-.68,2.4-1.58,4.83-2a19.62,19.62,0,0,0,6.92-2.61c4.81-3.57,5.11-6.56,4.79-47.63-.36-46.72.45-44-14.11-47-1.55-.32-2.65-1.08-2.45-1.7.26-.79,9.67-1.14,32-1.21,36-.11,34.2.3,40.6-9.17,3.46-5.13,5.17-6.54,5.16-4.26,0,.73-2.39,8.08-5.3,16.33-3.52,10-5.79,15-6.75,15s-1.57-1.15-1.75-2.67c-.53-4.56-1.87-4.9-17.83-4.6L626,73.48v33l11,.27c13.14.31,15.91-.88,20.24-8.73,2.43-4.42,5.26-6.65,5.26-4.16,0,.86-7.95,23.86-10.16,29.41-1.37,3.43-3,3.08-3.43-.73-.46-4.35-1.82-5-10.84-5.41-12.76-.53-12.57-.77-12.57,15.42,0,14.73,1.1,19.33,5.17,21.55,2.63,1.43,30.46,2.55,36.3,1.45,4.56-.85,9.67-5.33,12-10.52,1.76-3.9,2.9-4.88,3.85-3.3.25.42-2.09,7.92-5.19,16.68C672.16,174,669.54,178.4,669.54,172.12Zm97.88,1.2a6.47,6.47,0,0,1,0-1.7,7.46,7.46,0,0,0-1.4-3.25L764.49,166h-36c-29.83,0-36-.23-36-1.37,0-.83,1.61-1.63,4.1-2,5.66-.9,9.29-3,10.71-6.07.86-1.89,1.19-13.75,1.19-42.67,0-35.81-.18-40.35-1.69-42.91-1.8-3.05-4.52-4.47-10.56-5.52-2.06-.36-3.75-1.17-3.75-1.8,0-.85,8.28-1.16,31.25-1.14,36.06,0,35.86.06,41.25-9.24,3.09-5.33,6.26-7.25,4.94-3C765.59,64.37,759.09,81,757.93,81c-.86,0-1.39-1.07-1.39-2.8,0-4.83-1.21-5.2-17.16-5.2-13.58,0-14.85.16-15.8,1.94-.57,1.06-1,7.84-1,15.06s.47,14,1,15.07c.91,1.7,2.16,1.93,10.53,1.93,13.37,0,17.28-2.07,22.72-12,1.08-2,2.16-2.92,2.71-2.37.82.82-5,19.28-9.36,29.72-1.69,4-3.64,4.16-3.64.2,0-4.5-2.31-5.52-12.54-5.52-12.11,0-12-.24-11.14,17.82.91,20.29,1.13,20.46,26.18,20.59,15.92.09,17.23,0,20.58-2.13a22,22,0,0,0,6.31-7.25c2.6-4.77,4.68-6.5,4.55-3.78-.15,3.05-10.57,31.14-11.69,31.51C768.1,174,767.49,173.77,767.42,173.32ZM508,166.63c-7-1.81-12.39-4.83-16.64-9.31-8.57-9-9.82-15.42-9.87-50.34,0-15.12-.45-29.3-1-31.5-1.23-5.32-5.5-9-11.4-9.92-3.06-.46-4.63-1.19-4.63-2.15,0-1.23,3.55-1.41,23.75-1.19,15,.17,23.74.63,23.72,1.26s-2.7,1.68-6,2.5c-4.86,1.23-6.36,2.14-8.29,5l-2.36,3.5.38,30.5c.35,28.15.54,31,2.51,36.25,2.89,7.76,6.24,11.87,12.5,15.34,4.76,2.64,6.13,2.91,14.75,2.91s10-.26,14.85-3c6.27-3.48,10.09-8.56,13.25-17.62,2-5.59,2.29-9,2.66-26.42.23-11,0-24.7-.55-30.44-.9-9.78-1.15-10.62-4-13.12a15.3,15.3,0,0,0-7.63-3.36c-3.07-.47-4.63-1.19-4.63-2.16,0-1.24,3.11-1.42,20.75-1.19,21.52.28,24.91,1.1,15,3.6-6.14,1.55-8.28,3.23-9.73,7.6-.57,1.75-1.44,16.66-1.91,33.13-.74,25.48-1.16,30.85-2.84,36-3.64,11.28-10.31,18.45-21.27,22.88C533.73,167.81,515.22,168.5,508,166.63Zm385-2.37c-1.64-2.08-10.86-12.73-20.5-23.67s-24.16-27.59-32.28-37S825.1,86.34,824.57,86.16c-1.87-.63-2.16,4.88-1.85,35.9.29,28.11.51,31.77,2.14,34.75,1.89,3.47,6.75,6.17,11.09,6.17,2.34,0,4.34,1.58,3.31,2.61-.62.63-39.82.63-40.44,0-1.15-1.15,1.1-2.61,4-2.61a15,15,0,0,0,6.5-2c6-3.67,6.19-5,6.18-45.7,0-21.26-.42-38.29-1-40.35-1.36-4.89-4.72-7.75-10.35-8.8-2.61-.49-5-1.17-5.38-1.52-1.77-1.78,2.43-2.33,14-1.86l12.79.53,3,4.35c10,14.48,59.66,70.37,62.57,70.37,1.09,0,1.34-5.59,1.34-29.75,0-16.37-.44-31.29-1-33.16-1.35-4.72-4.68-7.95-8.93-8.66-5.76-1-7.22-1.53-6.85-2.65.23-.68,7.43-1,20.8-1,16.75,0,20.46.25,20.46,1.38,0,.93-1.8,1.6-5.48,2.05-4.41.54-6,1.28-8.25,3.77a12.18,12.18,0,0,0-3,6.33c-.13,1.78-.24,23-.25,47.23,0,43.24,0,44-2,44.28C896.72,167.94,895,166.75,893.06,164.26Z" transform="translate(-253.47)"/>
      </g>
    </g>
    <g>
      <path d="M601.35,230.48l3-.15c2.55-.13,4.26-.19,5.14-.19A13.57,13.57,0,0,1,616,231.4a8.14,8.14,0,0,1,3.44,3.41,10.56,10.56,0,0,1,1.13,5,10.75,10.75,0,0,1-.62,3.72,8,8,0,0,1-1.68,2.81,7.38,7.38,0,0,1-2.49,1.69,10.23,10.23,0,0,1-2.69.73c-.85.09-2,.14-3.58.14h-8.22v-.63H602a3.18,3.18,0,0,0,1.64-.3,1.35,1.35,0,0,0,.59-.94,19.31,19.31,0,0,0,.13-3V235.1a18.49,18.49,0,0,0-.13-2.86,1.24,1.24,0,0,0-.54-.89,4.39,4.39,0,0,0-1.83-.24h-.55Zm5.72.38v12.39c0,1.83,0,3,.1,3.54a1.45,1.45,0,0,0,.62,1.12,4.74,4.74,0,0,0,2.16.32,10.07,10.07,0,0,0,4-.67,5.48,5.48,0,0,0,2.61-2.61,10.53,10.53,0,0,0,1-5,13.24,13.24,0,0,0-.61-4.19,7.48,7.48,0,0,0-1.74-3,5.92,5.92,0,0,0-2.52-1.58,12.83,12.83,0,0,0-3.54-.41Q608.14,230.8,607.07,230.86Z" transform="translate(-253.47)"/>
      <path d="M626.5,237.22V245c0,1.19,0,1.94,0,2.25a1,1,0,0,0,.4.72,2.19,2.19,0,0,0,1.21.24h.29v.63h-6v-.63h.47a1.92,1.92,0,0,0,1.26-.28,1.06,1.06,0,0,0,.34-.67c0-.26,0-1,0-2.26v-3.39a9,9,0,0,0-.18-2.41,1,1,0,0,0-.5-.55,3.75,3.75,0,0,0-1.07-.1h-.37V238a17.16,17.16,0,0,0,3.78-.73Zm-2.64-5.71a1.41,1.41,0,0,1,.41-1,1.35,1.35,0,0,1,1-.43,1.33,1.33,0,0,1,1,.43,1.46,1.46,0,0,1,0,2,1.37,1.37,0,0,1-1,.43,1.39,1.39,0,0,1-1-.43A1.42,1.42,0,0,1,623.86,231.51Z" transform="translate(-253.47)"/>
      <path d="M630.12,249.23v-3.68h.53q.93,3.18,3.32,3.18a1.9,1.9,0,0,0,1.56-.63,2.11,2.11,0,0,0,.51-1.38,1.94,1.94,0,0,0-.55-1.43,8.64,8.64,0,0,0-2.17-1.36,8.31,8.31,0,0,1-2.44-1.64,2.75,2.75,0,0,1-.73-1.95,3.34,3.34,0,0,1,.79-2.11,2.68,2.68,0,0,1,2.23-1,3,3,0,0,1,2.42,1.19,3.89,3.89,0,0,0,.53-1h.51v3.46h-.51a4.65,4.65,0,0,0-1.06-2.14,2.4,2.4,0,0,0-1.85-.89,1.83,1.83,0,0,0-1.33.5,1.64,1.64,0,0,0-.5,1.18,1.68,1.68,0,0,0,.56,1.27A7.46,7.46,0,0,0,634,242a6,6,0,0,1,2.84,2.05,4.25,4.25,0,0,1,.52,1.95,3.16,3.16,0,0,1-1,2.38,3.38,3.38,0,0,1-2.43.91,3.7,3.7,0,0,1-2.75-1.27,3.25,3.25,0,0,0-.6,1.18Z" transform="translate(-253.47)"/>
      <path d="M649,246.14h.6q-.93,3.18-4.65,3.18a5.48,5.48,0,0,1-4-1.63,5.83,5.83,0,0,1-1.63-4.3,6,6,0,0,1,1.76-4.46,5.8,5.8,0,0,1,4.17-1.71,5.6,5.6,0,0,1,2.67.64c.81.42,1.22.94,1.22,1.55a1,1,0,0,1-.23.64.77.77,0,0,1-.65.3q-.9,0-1.11-1a2.05,2.05,0,0,0-.5-1.11,2.18,2.18,0,0,0-1.38-.31,3.19,3.19,0,0,0-2.76,1.27,6.55,6.55,0,0,0-.92,3.83,7.42,7.42,0,0,0,1,4.13,3.36,3.36,0,0,0,3,1.49A3.24,3.24,0,0,0,649,246.14Z" transform="translate(-253.47)"/>
      <path d="M651.32,243.25a5.85,5.85,0,0,1,1.73-4.3,6.06,6.06,0,0,1,8.49,0,5.85,5.85,0,0,1,1.72,4.29,5.75,5.75,0,0,1-1.75,4.45,6,6,0,0,1-4.22,1.62,5.91,5.91,0,0,1-4.22-1.65A5.79,5.79,0,0,1,651.32,243.25Zm2.27.07a6.84,6.84,0,0,0,1,4.18,3.74,3.74,0,0,0,5.47,0,6.93,6.93,0,0,0,1-4.18,7.16,7.16,0,0,0-1-4.21,3.21,3.21,0,0,0-2.74-1.26,3.26,3.26,0,0,0-2.75,1.25A7.18,7.18,0,0,0,653.59,243.32Z" transform="translate(-253.47)"/>
      <path d="M673.88,238.66a3.24,3.24,0,0,1,2.35-1.32,1.38,1.38,0,0,1,1,.36,1.1,1.1,0,0,1,.37.78c0,.6-.28.9-.83.9a.9.9,0,0,1-.77-.56c-.2-.34-.41-.52-.63-.52a1.7,1.7,0,0,0-1.15.71,4.41,4.41,0,0,1,.71,2.38,4.09,4.09,0,0,1-1.18,2.9,5.48,5.48,0,0,1-4,1.37c-1.93.06-2.9.45-2.9,1.17,0,.34.22.58.66.71a12,12,0,0,0,2.7.33,19,19,0,0,1,3.48.42,3.59,3.59,0,0,1,1.19,6.36,7,7,0,0,1-4.26,1.11,7.5,7.5,0,0,1-4.07-1,2.91,2.91,0,0,1-1.53-2.49,2.05,2.05,0,0,1,.44-1.37,1.52,1.52,0,0,1,1.24-.53,1,1,0,0,1,.4.07,2.86,2.86,0,0,0-.85,2,2.32,2.32,0,0,0,1.13,2,5.84,5.84,0,0,0,3.37.79,5.3,5.3,0,0,0,3.11-.8,2.41,2.41,0,0,0,1.11-2,2,2,0,0,0-1-1.93,8.87,8.87,0,0,0-3.55-.66,8.44,8.44,0,0,1-3.82-.72,1.77,1.77,0,0,1-.87-1.52c0-1.19.83-1.95,2.5-2.26a5.7,5.7,0,0,1-1.95-1.75,3.85,3.85,0,0,1-.66-2.2,3.73,3.73,0,0,1,1.35-2.9,4.62,4.62,0,0,1,3.19-1.2A4.83,4.83,0,0,1,673.88,238.66Zm-6.15,3a3.8,3.8,0,0,0,.73,2.58,2.42,2.42,0,0,0,3.62,0,4.14,4.14,0,0,0,.75-2.82,3.83,3.83,0,0,0-.79-2.79,2.53,2.53,0,0,0-1.79-.77,2.14,2.14,0,0,0-1.89.94A5.19,5.19,0,0,0,667.73,241.64Z" transform="translate(-253.47)"/>
      <path d="M682.58,240.08a4.67,4.67,0,0,1,1.51-2,3.39,3.39,0,0,1,2-.82,1.84,1.84,0,0,1,1.42.56,1.69,1.69,0,0,1,.52,1.15.93.93,0,0,1-.26.68.84.84,0,0,1-.65.29c-.46,0-.8-.34-1-1-.16-.46-.41-.68-.74-.68a2.24,2.24,0,0,0-1.41.8,3.75,3.75,0,0,0-1.05,1.66,9.21,9.21,0,0,0-.23,2.36v2c0,1.19,0,1.94,0,2.25a1,1,0,0,0,.38.72,2.26,2.26,0,0,0,1.22.24h.38v.63h-5.94v-.63h.28a2.25,2.25,0,0,0,1.17-.22.91.91,0,0,0,.42-.64,20.53,20.53,0,0,0,.07-2.35v-3.16c0-1.2,0-2-.05-2.26a1,1,0,0,0-.39-.71,2.12,2.12,0,0,0-1.22-.26h-.28V238a19.22,19.22,0,0,0,3.36-.81A9,9,0,0,1,682.58,240.08Z" transform="translate(-253.47)"/>
      <path d="M700.46,246.82H701c-.09,1.56-.85,2.34-2.3,2.34a2.14,2.14,0,0,1-1.47-.49,2.48,2.48,0,0,1-.7-1.47,14.72,14.72,0,0,1-2.5,1.47,5.24,5.24,0,0,1-2,.49,3,3,0,0,1-2-.66,2.11,2.11,0,0,1-.82-1.74,3.09,3.09,0,0,1,1.37-2.46,17.2,17.2,0,0,1,3.8-2.05l2.12-.86v-.55a6.72,6.72,0,0,0-.15-1.68,1.77,1.77,0,0,0-.78-.93,3,3,0,0,0-1.66-.41c-1.37,0-2.13.46-2.28,1.37s-.53,1.39-1.15,1.39-.83-.26-.83-.79a2.38,2.38,0,0,1,1.1-1.67,7,7,0,0,1,6.14-.35,2.87,2.87,0,0,1,1.27,1.24,5.75,5.75,0,0,1,.3,2.14v4.52a7.52,7.52,0,0,0,.17,2,.68.68,0,0,0,.71.45C699.94,248.16,700.32,247.71,700.46,246.82Zm-4-4.79-1.49.61c-2.36,1-3.53,2.16-3.53,3.61a2,2,0,0,0,.45,1.38,1.48,1.48,0,0,0,1.18.53,3.5,3.5,0,0,0,1.49-.42,11.72,11.72,0,0,0,1.9-1.28Z" transform="translate(-253.47)"/>
      <path d="M704.71,237.22h.37a6.27,6.27,0,0,1,.23,1.85,6.19,6.19,0,0,1,1.88-1.39,5,5,0,0,1,2.13-.46,5.11,5.11,0,0,1,3.87,1.64,6,6,0,0,1,1.54,4.31,6.39,6.39,0,0,1-1.55,4.39,5.18,5.18,0,0,1-4.08,1.76,4.9,4.9,0,0,1-2-.42,6.21,6.21,0,0,1-1.8-1.23v4.25a19.84,19.84,0,0,0,.08,2.36.87.87,0,0,0,.43.64,2.89,2.89,0,0,0,1.33.21v.63h-5.86v-.63h.42a1.93,1.93,0,0,0,1.26-.28,1.06,1.06,0,0,0,.34-.67c0-.26.05-1,.05-2.26V241.75c0-1.2,0-1.95-.05-2.26a.93.93,0,0,0-.39-.71,2.2,2.2,0,0,0-1.21-.25h-.42v-.62A23.12,23.12,0,0,0,704.71,237.22Zm.6,9.54a5.42,5.42,0,0,0,1.57,1.36,3.46,3.46,0,0,0,4.44-.86,6.44,6.44,0,0,0,1.14-4.23,5.52,5.52,0,0,0-1.1-3.76,3.42,3.42,0,0,0-2.64-1.24,3.56,3.56,0,0,0-1.79.48,5.67,5.67,0,0,0-1.62,1.45Z" transform="translate(-253.47)"/>
      <path d="M720.41,239.52a5.71,5.71,0,0,1,1.84-1.72,4.39,4.39,0,0,1,2.23-.58,4.14,4.14,0,0,1,2.29.58,2.67,2.67,0,0,1,1.19,1.41,9.82,9.82,0,0,1,.27,2.73V245a21.33,21.33,0,0,0,.07,2.39.83.83,0,0,0,.45.62,3.07,3.07,0,0,0,1.37.2v.63h-5.79v-.63h.26a1.89,1.89,0,0,0,1.29-.29,1.13,1.13,0,0,0,.35-.67c0-.26,0-1,0-2.25v-3.36a9.54,9.54,0,0,0-.16-2.07,1.94,1.94,0,0,0-.77-1.11,2.58,2.58,0,0,0-1.53-.43,3.1,3.1,0,0,0-1.91.62,5.13,5.13,0,0,0-1.49,1.86V245c0,1.26,0,2,.06,2.32a.9.9,0,0,0,.42.67,2.62,2.62,0,0,0,1.3.22v.63H716.5v-.63h.29a1.93,1.93,0,0,0,1.27-.28,1.13,1.13,0,0,0,.35-.67c0-.26,0-1,0-2.26V233.87a4.32,4.32,0,0,0-.32-2.14c-.21-.31-.72-.46-1.54-.46v-.62a9.44,9.44,0,0,0,3.53-.58h.29Z" transform="translate(-253.47)"/>
      <path d="M737.2,246.75l2.59-6.22a10.23,10.23,0,0,0,.57-1.52c0-.45-.51-.69-1.52-.71v-.63h3.94v.63a1.9,1.9,0,0,0-1.34.49,6.9,6.9,0,0,0-1.06,2l-5,12a8.93,8.93,0,0,1-1.26,2.35,1.59,1.59,0,0,1-1.2.62c-.59,0-.89-.27-.89-.81s.48-1.14,1.42-1.57a4.11,4.11,0,0,0,1.12-.63,2.51,2.51,0,0,0,.55-.94l1.07-2.67-4.21-9a5.28,5.28,0,0,0-.93-1.5,2,2,0,0,0-1.26-.32v-.63h5.14v.63c-.9,0-1.35.22-1.35.56a6,6,0,0,0,.53,1.34Z" transform="translate(-253.47)"/>
      <path d="M756.62,255.56h-.94a20.16,20.16,0,0,1-4.56-13,19.43,19.43,0,0,1,4.41-12.43h.94a16.89,16.89,0,0,0-3.34,5.65,19.63,19.63,0,0,0-1.17,6.69,20.75,20.75,0,0,0,1.36,7.67A16.15,16.15,0,0,0,756.62,255.56Z" transform="translate(-253.47)"/>
      <path d="M757.62,249.23v-3.68h.54c.62,2.12,1.72,3.18,3.32,3.18a1.88,1.88,0,0,0,1.55-.63,2.11,2.11,0,0,0,.51-1.38,2,2,0,0,0-.54-1.43,8.75,8.75,0,0,0-2.18-1.36,8.11,8.11,0,0,1-2.43-1.64,2.75,2.75,0,0,1-.74-1.95,3.4,3.4,0,0,1,.79-2.11,2.68,2.68,0,0,1,2.23-1,3,3,0,0,1,2.42,1.19,3.34,3.34,0,0,0,.53-1h.51v3.46h-.51a4.73,4.73,0,0,0-1-2.14,2.44,2.44,0,0,0-1.86-.89,1.8,1.8,0,0,0-1.32.5,1.61,1.61,0,0,0-.51,1.18,1.72,1.72,0,0,0,.56,1.27,7.61,7.61,0,0,0,2.09,1.24,6.07,6.07,0,0,1,2.85,2.05,4.38,4.38,0,0,1,.52,1.95,3.14,3.14,0,0,1-1,2.38,3.37,3.37,0,0,1-2.42.91,3.68,3.68,0,0,1-2.75-1.27,3,3,0,0,0-.6,1.18Z" transform="translate(-253.47)"/>
      <path d="M773.51,238.3h-3.38v6.77a10.33,10.33,0,0,0,.14,2.1,1.49,1.49,0,0,0,.58.87,1.62,1.62,0,0,0,.95.32,2,2,0,0,0,1.71-1.12l.44.26a2.91,2.91,0,0,1-1.25,1.36,3.41,3.41,0,0,1-1.68.46,2.74,2.74,0,0,1-1.73-.58,2.45,2.45,0,0,1-.93-1.36,14,14,0,0,1-.18-2.73V238.3h-1.63v-.63a2.84,2.84,0,0,0,2-.94,4.61,4.61,0,0,0,1.14-2.57h.43v3.51h3.38Z" transform="translate(-253.47)"/>
      <path d="M786.16,237.67V245c0,1.23,0,2,.05,2.3a1,1,0,0,0,.4.7,2.5,2.5,0,0,0,1.26.23v.63a8.44,8.44,0,0,0-3,.44h-.16a5.61,5.61,0,0,1-.47-2.6,6,6,0,0,1-1.91,2,4.49,4.49,0,0,1-2.37.65,3.79,3.79,0,0,1-2-.51,2.76,2.76,0,0,1-1.18-1.25,5.78,5.78,0,0,1-.32-2.23v-3.82c0-1.29,0-2.08-.07-2.37a.85.85,0,0,0-.43-.63,2.94,2.94,0,0,0-1.34-.21v-.63h3.8v7.77a7.34,7.34,0,0,0,.14,1.67,1.62,1.62,0,0,0,.7.91,2.2,2.2,0,0,0,1.3.39,3.34,3.34,0,0,0,2-.7,3.8,3.8,0,0,0,1.3-1.46,5.56,5.56,0,0,0,.35-2.21v-2.53c0-1.22,0-2,0-2.22a1.05,1.05,0,0,0-.35-.69,1.9,1.9,0,0,0-1.28-.3h-.28v-.63Z" transform="translate(-253.47)"/>
      <path d="M799.09,238.86v-4.37c0-1.2,0-2-.05-2.26a.93.93,0,0,0-.39-.71,2.2,2.2,0,0,0-1.21-.25h-.29v-.62a15.32,15.32,0,0,0,3.62-.58h.29v15.05a21.1,21.1,0,0,0,.07,2.38.81.81,0,0,0,.43.63,2.94,2.94,0,0,0,1.34.21V249a19.13,19.13,0,0,0-3.52.35,8.83,8.83,0,0,1-.17-2,7.67,7.67,0,0,1-2.08,1.52,5.28,5.28,0,0,1-2.22.5,4.91,4.91,0,0,1-3.76-1.75,6.66,6.66,0,0,1,0-8.66,5.1,5.1,0,0,1,3.84-1.69,5.75,5.75,0,0,1,2.15.41A6.75,6.75,0,0,1,799.09,238.86Zm0,.8a7.11,7.11,0,0,0-1.81-1.17,4.63,4.63,0,0,0-1.83-.39,3.23,3.23,0,0,0-2.57,1.19,5.85,5.85,0,0,0-1,3.88,6.35,6.35,0,0,0,1.06,4,3.25,3.25,0,0,0,2.62,1.3,3.9,3.9,0,0,0,1.93-.49,5.37,5.37,0,0,0,1.64-1.48Z" transform="translate(-253.47)"/>
      <path d="M807.68,237.22V245c0,1.19,0,1.94.05,2.25a1,1,0,0,0,.4.72,2.19,2.19,0,0,0,1.21.24h.29v.63h-6v-.63h.47a1.93,1.93,0,0,0,1.26-.28,1.06,1.06,0,0,0,.34-.67c0-.26.05-1,.05-2.26v-3.39a9,9,0,0,0-.18-2.41,1,1,0,0,0-.5-.55,3.75,3.75,0,0,0-1.07-.1h-.37V238a17.16,17.16,0,0,0,3.78-.73ZM805,231.51a1.41,1.41,0,0,1,.41-1,1.35,1.35,0,0,1,1-.43,1.33,1.33,0,0,1,1,.43,1.46,1.46,0,0,1,0,2,1.37,1.37,0,0,1-1,.43,1.39,1.39,0,0,1-1-.43A1.42,1.42,0,0,1,805,231.51Z" transform="translate(-253.47)"/>
      <path d="M811.2,243.25a5.85,5.85,0,0,1,1.73-4.3,6.06,6.06,0,0,1,8.49,0,5.89,5.89,0,0,1,1.72,4.29,5.75,5.75,0,0,1-1.75,4.45,6,6,0,0,1-4.23,1.62,5.89,5.89,0,0,1-4.21-1.65A5.76,5.76,0,0,1,811.2,243.25Zm2.27.07a6.84,6.84,0,0,0,1,4.18,3.74,3.74,0,0,0,5.47,0,6.93,6.93,0,0,0,1-4.18,7.16,7.16,0,0,0-1-4.21,3.22,3.22,0,0,0-2.75-1.26,3.25,3.25,0,0,0-2.74,1.25A7.18,7.18,0,0,0,813.47,243.32Z" transform="translate(-253.47)"/>
      <path d="M843.5,246.82h.5c-.08,1.56-.85,2.34-2.29,2.34a2.12,2.12,0,0,1-1.47-.49,2.49,2.49,0,0,1-.71-1.47,14.3,14.3,0,0,1-2.49,1.47,5.33,5.33,0,0,1-2,.49,3,3,0,0,1-2-.66,2.14,2.14,0,0,1-.82-1.74,3.07,3.07,0,0,1,1.38-2.46,17.1,17.1,0,0,1,3.79-2.05l2.12-.86v-.55a6.72,6.72,0,0,0-.15-1.68,1.77,1.77,0,0,0-.78-.93,3,3,0,0,0-1.65-.41c-1.37,0-2.13.46-2.29,1.37s-.52,1.39-1.14,1.39-.84-.26-.84-.79a2.36,2.36,0,0,1,1.11-1.67,7,7,0,0,1,6.14-.35,2.79,2.79,0,0,1,1.26,1.24,5.52,5.52,0,0,1,.31,2.14v4.52a7.67,7.67,0,0,0,.16,2,.68.68,0,0,0,.72.45C843,248.16,843.35,247.71,843.5,246.82Zm-4-4.79-1.49.61c-2.35,1-3.53,2.16-3.53,3.61a2,2,0,0,0,.45,1.38,1.51,1.51,0,0,0,1.18.53,3.42,3.42,0,0,0,1.49-.42,10.91,10.91,0,0,0,1.9-1.28Z" transform="translate(-253.47)"/>
      <path d="M848.58,230.07v15c0,1.19,0,1.94,0,2.25a1,1,0,0,0,.39.72,2.24,2.24,0,0,0,1.22.24h.32v.63h-6v-.63H845a2.25,2.25,0,0,0,1.17-.22.9.9,0,0,0,.41-.64,20.53,20.53,0,0,0,.07-2.35V234a4.81,4.81,0,0,0-.31-2.22c-.21-.3-.72-.46-1.53-.46v-.62a11.81,11.81,0,0,0,2-.2,6.69,6.69,0,0,0,1.55-.38Z" transform="translate(-253.47)"/>
      <path d="M853.7,249.32h-.54v-15a14.94,14.94,0,0,0-.09-2.12,1,1,0,0,0-.45-.71,2.4,2.4,0,0,0-1.26-.24v-.62a11.8,11.8,0,0,0,1.94-.2,6.29,6.29,0,0,0,1.54-.38h.29v8.86a7.3,7.3,0,0,1,1.94-1.28,4.9,4.9,0,0,1,2-.43,5.14,5.14,0,0,1,4,1.68,6.12,6.12,0,0,1,1.55,4.3,6.25,6.25,0,0,1-1.59,4.37,5.29,5.29,0,0,1-4.11,1.75,4.37,4.37,0,0,1-2.18-.52,4.21,4.21,0,0,1-1.57-1.54A7.11,7.11,0,0,0,853.7,249.32Zm1.43-9.58v4.39a9.31,9.31,0,0,0,.23,2.44,3.07,3.07,0,0,0,1.08,1.43,3.19,3.19,0,0,0,2,.68,3.27,3.27,0,0,0,2.81-1.45,7.06,7.06,0,0,0,1-4.17,6.3,6.3,0,0,0-1-3.81,3.08,3.08,0,0,0-2.6-1.3,4,4,0,0,0-1.83.44A6.62,6.62,0,0,0,855.13,239.74Z" transform="translate(-253.47)"/>
      <path d="M877.22,237.67V245c0,1.23,0,2,.06,2.3a1,1,0,0,0,.4.7,2.48,2.48,0,0,0,1.25.23v.63a8.42,8.42,0,0,0-3,.44h-.17a5.78,5.78,0,0,1-.46-2.6,6.08,6.08,0,0,1-1.91,2,4.49,4.49,0,0,1-2.37.65,3.79,3.79,0,0,1-2-.51,2.71,2.71,0,0,1-1.18-1.25,5.74,5.74,0,0,1-.33-2.23v-3.82q0-1.94-.06-2.37a.83.83,0,0,0-.44-.63,2.89,2.89,0,0,0-1.33-.21v-.63h3.8v7.77a7.34,7.34,0,0,0,.14,1.67,1.62,1.62,0,0,0,.7.91,2.2,2.2,0,0,0,1.3.39,3.34,3.34,0,0,0,2-.7,3.8,3.8,0,0,0,1.3-1.46,5.56,5.56,0,0,0,.35-2.21v-2.53c0-1.22,0-2,0-2.22a1.1,1.1,0,0,0-.35-.69,1.92,1.92,0,0,0-1.28-.3h-.29v-.63Z" transform="translate(-253.47)"/>
      <path d="M883.57,237.22h.14a6.07,6.07,0,0,1,.39,2.35,6.59,6.59,0,0,1,2-1.76,4.6,4.6,0,0,1,2.27-.59,3.74,3.74,0,0,1,2.25.63,3.35,3.35,0,0,1,1.2,1.89,8,8,0,0,1,2.13-1.89,4.42,4.42,0,0,1,2.23-.63,3.87,3.87,0,0,1,2.2.6,2.43,2.43,0,0,1,1.1,1.37,11.9,11.9,0,0,1,.19,2.48V245a21.35,21.35,0,0,0,.07,2.38.88.88,0,0,0,.44.63,3.15,3.15,0,0,0,1.35.2v.63h-5.6v-.63a2.75,2.75,0,0,0,1.26-.2.85.85,0,0,0,.44-.6,20.2,20.2,0,0,0,.08-2.41V241.3a8.07,8.07,0,0,0-.13-1.71,1.69,1.69,0,0,0-.68-1,2.3,2.3,0,0,0-1.42-.41,3.19,3.19,0,0,0-1.78.6,7.76,7.76,0,0,0-1.8,1.82V245c0,1.19,0,1.94,0,2.25a1,1,0,0,0,.38.71,2.08,2.08,0,0,0,1.2.25v.63h-5.42v-.63a3,3,0,0,0,1.28-.19.85.85,0,0,0,.45-.59,17.36,17.36,0,0,0,.09-2.43v-3.11a15,15,0,0,0-.11-2.13,1.85,1.85,0,0,0-.71-1.14,2.28,2.28,0,0,0-1.46-.47,3.23,3.23,0,0,0-1.73.55,7.6,7.6,0,0,0-1.8,1.64V245c0,1.23,0,2,.06,2.3a.88.88,0,0,0,.41.68,2.52,2.52,0,0,0,1.27.23v.63h-5.48v-.63a2.72,2.72,0,0,0,1.26-.2.83.83,0,0,0,.44-.59,17.38,17.38,0,0,0,.09-2.42v-3.35a20.9,20.9,0,0,0-.07-2.35.88.88,0,0,0-.42-.65,2.83,2.83,0,0,0-1.3-.21v-.63A15.35,15.35,0,0,0,883.57,237.22Z" transform="translate(-253.47)"/>
      <path d="M903.24,249.23v-3.68h.54c.62,2.12,1.72,3.18,3.32,3.18a1.88,1.88,0,0,0,1.55-.63,2.11,2.11,0,0,0,.51-1.38,2,2,0,0,0-.54-1.43,8.75,8.75,0,0,0-2.18-1.36,8.11,8.11,0,0,1-2.43-1.64,2.75,2.75,0,0,1-.74-1.95,3.34,3.34,0,0,1,.79-2.11,2.68,2.68,0,0,1,2.23-1,3,3,0,0,1,2.42,1.19,3.34,3.34,0,0,0,.53-1h.51v3.46h-.51a4.65,4.65,0,0,0-1.06-2.14,2.4,2.4,0,0,0-1.85-.89,1.8,1.8,0,0,0-1.32.5,1.61,1.61,0,0,0-.51,1.18,1.72,1.72,0,0,0,.56,1.27,7.46,7.46,0,0,0,2.09,1.24,6.07,6.07,0,0,1,2.85,2.05,4.38,4.38,0,0,1,.52,1.95,3.17,3.17,0,0,1-1,2.38,3.38,3.38,0,0,1-2.43.91,3.66,3.66,0,0,1-2.74-1.27,3,3,0,0,0-.6,1.18Z" transform="translate(-253.47)"/>
      <path d="M911.29,255.56a16,16,0,0,0,3.29-5.4,21.18,21.18,0,0,0,.26-14.21,16.41,16.41,0,0,0-3.41-5.8h1a19.43,19.43,0,0,1,4.41,12.43,20.16,20.16,0,0,1-4.56,13Z" transform="translate(-253.47)"/>
    </g>
  </g>
  <g id="vinyl_group">
    <g id="vinyl-0" data-name="vinyl">
      <g id="use31">
        <path id="path3191" class="cls-11" d="M662.15,389.7a74.1,74.1,0,1,0,74.1,74.1A74.13,74.13,0,0,0,662.15,389.7Zm0,72a2.08,2.08,0,1,1-2.08,2.08A2.08,2.08,0,0,1,662.15,461.72Z" transform="translate(-253.47)"/>
      </g>
      <path d="M661.06,388.1a74.1,74.1,0,1,0,74.1,74.1A74.13,74.13,0,0,0,661.06,388.1Zm0,72A2.08,2.08,0,1,1,659,462.2,2.08,2.08,0,0,1,661.06,460.12Z" transform="translate(-253.47)"/>
      <path id="path3271" class="cls-12" d="M661.06,435.23a27,27,0,1,0,27,27A27,27,0,0,0,661.06,435.23Zm0,25.19a1.78,1.78,0,1,1-1.77,1.78A1.78,1.78,0,0,1,661.06,460.42Z" transform="translate(-253.47)"/>
      <path id="path3176" class="cls-13" d="M661.06,388.81a73.39,73.39,0,1,1-73.38,73.39A73.41,73.41,0,0,1,661.06,388.81Z" transform="translate(-253.47)"/>
      <g id="use3151">
        <path id="path3193" class="cls-14" d="M698.54,462.2a37.5,37.5,0,0,1-37.48,37.49v35.18a72.7,72.7,0,0,0,72.68-72.67Z" transform="translate(-253.47)"/>
      </g>
      <path class="cls-15" d="M623.59,462.2a37.49,37.49,0,0,1,37.47-37.49V389.53a72.7,72.7,0,0,0-72.67,72.67Z" transform="translate(-253.47)"/>
      <path id="path3215" class="cls-16" d="M661.06,435.24a27,27,0,1,1-27,27A27,27,0,0,1,661.06,435.24Z" transform="translate(-253.47)"/>
      <path id="path3223" class="cls-17" d="M676.27,447a21.5,21.5,0,1,0,0,30.41,21.52,21.52,0,0,0,0-30.41Zm-13.74,13.74a2.08,2.08,0,1,1-2.94,0A2.08,2.08,0,0,1,662.53,460.73Z" transform="translate(-253.47)"/>
      <path id="path3230" class="cls-18" d="M678.67,444.59a24.81,24.81,0,0,0-9.73-6l-.5,1.48A23.36,23.36,0,0,1,683.8,457l1.53-.34a24.81,24.81,0,0,0-6.66-12.09Z" transform="translate(-253.47)"/>
      <path id="path3232" class="cls-18" d="M638.08,458.3l-1.56-.27a24.89,24.89,0,0,0,28.65,28.72l-.26-1.55a23.31,23.31,0,0,1-26.83-26.9Z" transform="translate(-253.47)"/>
    </g>
    <g id="vinyl-1" data-name="vinyl">
      <g id="use31-2" data-name="use31">
        <path id="path3191-2" data-name="path3191" class="cls-11" d="M662.15,686a74.1,74.1,0,1,0,74.1,74.1A74.12,74.12,0,0,0,662.15,686Zm0,72a2.08,2.08,0,1,1-2.08,2.08A2.08,2.08,0,0,1,662.15,758Z" transform="translate(-253.47)"/>
      </g>
      <path d="M661.06,684.39a74.1,74.1,0,1,0,74.1,74.09A74.12,74.12,0,0,0,661.06,684.39Zm0,72a2.08,2.08,0,1,1-2.07,2.07A2.08,2.08,0,0,1,661.06,756.41Z" transform="translate(-253.47)"/>
      <path id="path3271-2" data-name="path3271" class="cls-12" d="M661.06,731.51a27,27,0,1,0,27,27A27,27,0,0,0,661.06,731.51Zm0,25.2a1.78,1.78,0,1,1-1.77,1.77A1.77,1.77,0,0,1,661.06,756.71Z" transform="translate(-253.47)"/>
      <path id="path3176-2" data-name="path3176" class="cls-13" d="M661.06,685.1a73.39,73.39,0,1,1-73.38,73.38A73.4,73.4,0,0,1,661.06,685.1Z" transform="translate(-253.47)"/>
      <g id="use3151-2" data-name="use3151">
        <path id="path3193-2" data-name="path3193" class="cls-19" d="M698.54,758.48A37.5,37.5,0,0,1,661.06,796v35.19a72.71,72.71,0,0,0,72.68-72.68Z" transform="translate(-253.47)"/>
      </g>
      <path class="cls-20" d="M623.59,758.48A37.49,37.49,0,0,1,661.06,721V685.81a72.7,72.7,0,0,0-72.67,72.67Z" transform="translate(-253.47)"/>
      <path id="path3215-2" data-name="path3215" class="cls-16" d="M661.06,731.52a27,27,0,1,1-27,27A27,27,0,0,1,661.06,731.52Z" transform="translate(-253.47)"/>
      <path id="path3223-2" data-name="path3223" class="cls-21" d="M676.27,743.28a21.5,21.5,0,1,0,0,30.41,21.52,21.52,0,0,0,0-30.41ZM662.53,757a2.08,2.08,0,1,1-2.94,0A2.07,2.07,0,0,1,662.53,757Z" transform="translate(-253.47)"/>
      <path id="path3230-2" data-name="path3230" class="cls-18" d="M678.67,740.88a24.72,24.72,0,0,0-9.73-6l-.5,1.49a23.36,23.36,0,0,1,15.36,16.95l1.53-.35a24.78,24.78,0,0,0-6.66-12.08Z" transform="translate(-253.47)"/>
      <path id="path3232-2" data-name="path3232" class="cls-18" d="M638.08,754.58l-1.56-.26A24.89,24.89,0,0,0,665.17,783l-.26-1.55a23.32,23.32,0,0,1-26.83-26.91Z" transform="translate(-253.47)"/>
    </g>
    <g id="vinyl-2" data-name="vinyl">
      <g id="use31-3" data-name="use31">
        <path id="path3191-3" data-name="path3191" class="cls-11" d="M662.15,982.27a74.1,74.1,0,1,0,74.1,74.1A74.13,74.13,0,0,0,662.15,982.27Zm0,72a2.08,2.08,0,1,1-2.08,2.08A2.08,2.08,0,0,1,662.15,1054.29Z" transform="translate(-253.47)"/>
      </g>
      <path d="M661.06,980.67a74.1,74.1,0,1,0,74.1,74.1A74.13,74.13,0,0,0,661.06,980.67Zm0,72a2.08,2.08,0,1,1-2.07,2.08A2.08,2.08,0,0,1,661.06,1052.69Z" transform="translate(-253.47)"/>
      <path id="path3271-3" data-name="path3271" class="cls-12" d="M661.06,1027.8a27,27,0,1,0,27,27A27,27,0,0,0,661.06,1027.8Zm0,25.19a1.78,1.78,0,1,1-1.77,1.78A1.78,1.78,0,0,1,661.06,1053Z" transform="translate(-253.47)"/>
      <path id="path3176-3" data-name="path3176" class="cls-13" d="M661.06,981.38a73.39,73.39,0,1,1-73.38,73.39A73.41,73.41,0,0,1,661.06,981.38Z" transform="translate(-253.47)"/>
      <g id="use3151-3" data-name="use3151">
        <path id="path3193-3" data-name="path3193" class="cls-22" d="M698.54,1054.77a37.5,37.5,0,0,1-37.48,37.49v35.18a72.7,72.7,0,0,0,72.68-72.67Z" transform="translate(-253.47)"/>
      </g>
      <path class="cls-23" d="M623.59,1054.77a37.49,37.49,0,0,1,37.47-37.49V982.1a72.7,72.7,0,0,0-72.67,72.67Z" transform="translate(-253.47)"/>
      <path id="path3215-3" data-name="path3215" class="cls-16" d="M661.06,1027.81a27,27,0,1,1-27,27A27,27,0,0,1,661.06,1027.81Z" transform="translate(-253.47)"/>
      <path id="path3223-3" data-name="path3223" class="cls-24" d="M676.27,1039.56a21.51,21.51,0,1,0,0,30.42,21.52,21.52,0,0,0,0-30.42Zm-13.74,13.74a2.08,2.08,0,1,1-2.94,0A2.08,2.08,0,0,1,662.53,1053.3Z" transform="translate(-253.47)"/>
      <path id="path3230-3" data-name="path3230" class="cls-18" d="M678.67,1037.17a24.72,24.72,0,0,0-9.73-6l-.5,1.48a23.36,23.36,0,0,1,15.36,16.95l1.53-.34a24.74,24.74,0,0,0-6.66-12.08Z" transform="translate(-253.47)"/>
      <path id="path3232-3" data-name="path3232" class="cls-18" d="M638.08,1050.87l-1.56-.27a24.89,24.89,0,0,0,28.65,28.72l-.26-1.55a23.31,23.31,0,0,1-26.83-26.9Z" transform="translate(-253.47)"/>
    </g>
    <g id="vinyl-3" data-name="vinyl">
      <g id="use31-4" data-name="use31">
        <path id="path3191-4" data-name="path3191" class="cls-11" d="M662.15,1278.56a74.1,74.1,0,1,0,74.1,74.1A74.13,74.13,0,0,0,662.15,1278.56Zm0,72a2.08,2.08,0,1,1-2.08,2.08A2.08,2.08,0,0,1,662.15,1350.58Z" transform="translate(-253.47)"/>
      </g>
      <path d="M661.06,1277a74.1,74.1,0,1,0,74.1,74.1A74.12,74.12,0,0,0,661.06,1277Zm0,72a2.08,2.08,0,1,1-2.07,2.08A2.08,2.08,0,0,1,661.06,1349Z" transform="translate(-253.47)"/>
      <path id="path3271-4" data-name="path3271" class="cls-12" d="M661.06,1324.08a27,27,0,1,0,27,27A27,27,0,0,0,661.06,1324.08Zm0,25.2a1.78,1.78,0,1,1-1.77,1.78A1.77,1.77,0,0,1,661.06,1349.28Z" transform="translate(-253.47)"/>
      <path id="path3176-4" data-name="path3176" class="cls-13" d="M661.06,1277.67a73.39,73.39,0,1,1-73.38,73.39A73.41,73.41,0,0,1,661.06,1277.67Z" transform="translate(-253.47)"/>
      <g id="use3151-4" data-name="use3151">
        <path id="path3193-4" data-name="path3193" class="cls-25" d="M698.54,1351.06a37.5,37.5,0,0,1-37.48,37.48v35.19a72.7,72.7,0,0,0,72.68-72.67Z" transform="translate(-253.47)"/>
      </g>
      <path class="cls-26" d="M623.59,1351.06a37.49,37.49,0,0,1,37.47-37.49v-35.19a72.7,72.7,0,0,0-72.67,72.68Z" transform="translate(-253.47)"/>
      <path id="path3215-4" data-name="path3215" class="cls-16" d="M661.06,1324.09a27,27,0,1,1-27,27A27,27,0,0,1,661.06,1324.09Z" transform="translate(-253.47)"/>
      <path id="path3223-4" data-name="path3223" class="cls-27" d="M676.27,1335.85a21.5,21.5,0,1,0,0,30.41,21.52,21.52,0,0,0,0-30.41Zm-13.74,13.74a2.08,2.08,0,1,1-2.94,0A2.08,2.08,0,0,1,662.53,1349.59Z" transform="translate(-253.47)"/>
      <path id="path3230-4" data-name="path3230" class="cls-18" d="M678.67,1333.45a24.72,24.72,0,0,0-9.73-6l-.5,1.49a23.36,23.36,0,0,1,15.36,17l1.53-.35a24.83,24.83,0,0,0-6.66-12.08Z" transform="translate(-253.47)"/>
      <path id="path3232-4" data-name="path3232" class="cls-18" d="M638.08,1347.15l-1.56-.26a24.89,24.89,0,0,0,28.65,28.72l-.26-1.55a23.32,23.32,0,0,1-26.83-26.91Z" transform="translate(-253.47)"/>
    </g>
    <g id="vinyl-4" data-name="vinyl">
      <g id="use31-5" data-name="use31">
        <path id="path3191-5" data-name="path3191" class="cls-11" d="M662.15,1574.84a74.1,74.1,0,1,0,74.1,74.1A74.13,74.13,0,0,0,662.15,1574.84Zm0,72a2.08,2.08,0,1,1-2.08,2.07A2.08,2.08,0,0,1,662.15,1646.87Z" transform="translate(-253.47)"/>
      </g>
      <path d="M661.06,1573.24a74.1,74.1,0,1,0,74.1,74.1A74.13,74.13,0,0,0,661.06,1573.24Zm0,72a2.08,2.08,0,1,1-2.07,2.08A2.08,2.08,0,0,1,661.06,1645.26Z" transform="translate(-253.47)"/>
      <path id="path3271-5" data-name="path3271" class="cls-12" d="M661.06,1620.37a27,27,0,1,0,27,27A27,27,0,0,0,661.06,1620.37Zm0,25.19a1.78,1.78,0,1,1-1.77,1.78A1.78,1.78,0,0,1,661.06,1645.56Z" transform="translate(-253.47)"/>
      <path id="path3176-5" data-name="path3176" class="cls-13" d="M661.06,1574a73.39,73.39,0,1,1-73.38,73.38A73.4,73.4,0,0,1,661.06,1574Z" transform="translate(-253.47)"/>
      <g id="use3151-5" data-name="use3151">
        <path id="path3193-5" data-name="path3193" class="cls-28" d="M698.54,1647.34a37.5,37.5,0,0,1-37.48,37.49V1720a72.7,72.7,0,0,0,72.68-72.67Z" transform="translate(-253.47)"/>
      </g>
      <path class="cls-29" d="M623.59,1647.34a37.49,37.49,0,0,1,37.47-37.49v-35.18a72.7,72.7,0,0,0-72.67,72.67Z" transform="translate(-253.47)"/>
      <path id="path3215-5" data-name="path3215" class="cls-16" d="M661.06,1620.38a27,27,0,1,1-27,27A27,27,0,0,1,661.06,1620.38Z" transform="translate(-253.47)"/>
      <path id="path3223-5" data-name="path3223" class="cls-30" d="M676.27,1632.14a21.5,21.5,0,1,0,0,30.41,21.5,21.5,0,0,0,0-30.41Zm-13.74,13.73a2.08,2.08,0,1,1-2.94,0A2.08,2.08,0,0,1,662.53,1645.87Z" transform="translate(-253.47)"/>
      <path id="path3230-5" data-name="path3230" class="cls-18" d="M678.67,1629.74a24.72,24.72,0,0,0-9.73-6l-.5,1.49a23.32,23.32,0,0,1,15.36,16.94l1.53-.34a24.74,24.74,0,0,0-6.66-12.08Z" transform="translate(-253.47)"/>
      <path id="path3232-5" data-name="path3232" class="cls-18" d="M638.08,1643.44l-1.56-.27a24.88,24.88,0,0,0,28.65,28.72l-.26-1.55a23.31,23.31,0,0,1-26.83-26.9Z" transform="translate(-253.47)"/>
    </g>
    <g id="vinyl-5" data-name="vinyl">
      <g id="use31-6" data-name="use31">
        <path id="path3191-6" data-name="path3191" class="cls-11" d="M662.15,1871.13a74.1,74.1,0,1,0,74.1,74.1A74.13,74.13,0,0,0,662.15,1871.13Zm0,72a2.08,2.08,0,1,1-2.08,2.08A2.08,2.08,0,0,1,662.15,1943.15Z" transform="translate(-253.47)"/>
      </g>
      <path d="M661.06,1869.53a74.1,74.1,0,1,0,74.1,74.1A74.12,74.12,0,0,0,661.06,1869.53Zm0,72a2.08,2.08,0,1,1-2.07,2.08A2.08,2.08,0,0,1,661.06,1941.55Z" transform="translate(-253.47)"/>
      <path id="path3271-6" data-name="path3271" class="cls-12" d="M661.06,1916.65a27,27,0,1,0,27,27A27,27,0,0,0,661.06,1916.65Zm0,25.2a1.78,1.78,0,1,1-1.77,1.78A1.77,1.77,0,0,1,661.06,1941.85Z" transform="translate(-253.47)"/>
      <path id="path3176-6" data-name="path3176" class="cls-13" d="M661.06,1870.24a73.39,73.39,0,1,1-73.38,73.39A73.41,73.41,0,0,1,661.06,1870.24Z" transform="translate(-253.47)"/>
      <g id="use3151-6" data-name="use3151">
        <path id="path3193-6" data-name="path3193" class="cls-31" d="M698.54,1943.63a37.5,37.5,0,0,1-37.48,37.49v35.18a72.7,72.7,0,0,0,72.68-72.67Z" transform="translate(-253.47)"/>
      </g>
      <path class="cls-32" d="M623.59,1943.63a37.49,37.49,0,0,1,37.47-37.49V1871a72.7,72.7,0,0,0-72.67,72.67Z" transform="translate(-253.47)"/>
      <path id="path3215-6" data-name="path3215" class="cls-16" d="M661.06,1916.67a27,27,0,1,1-27,27A27,27,0,0,1,661.06,1916.67Z" transform="translate(-253.47)"/>
      <path id="path3223-6" data-name="path3223" class="cls-33" d="M676.27,1928.42a21.5,21.5,0,1,0,0,30.41,21.52,21.52,0,0,0,0-30.41Zm-13.74,13.74a2.08,2.08,0,1,1-2.94,0A2.08,2.08,0,0,1,662.53,1942.16Z" transform="translate(-253.47)"/>
      <path id="path3230-6" data-name="path3230" class="cls-18" d="M678.67,1926a24.84,24.84,0,0,0-9.73-6l-.5,1.49a23.36,23.36,0,0,1,15.36,17l1.53-.35a24.83,24.83,0,0,0-6.66-12.08Z" transform="translate(-253.47)"/>
      <path id="path3232-6" data-name="path3232" class="cls-18" d="M638.08,1939.72l-1.56-.26a24.89,24.89,0,0,0,28.65,28.72l-.26-1.55a23.31,23.31,0,0,1-26.83-26.91Z" transform="translate(-253.47)"/>
    </g>
    <g id="vinyl-6" data-name="vinyl">
      <g id="use31-7" data-name="use31">
        <path id="path3191-7" data-name="path3191" class="cls-11" d="M662.15,2167.42a74.1,74.1,0,1,0,74.1,74.1A74.12,74.12,0,0,0,662.15,2167.42Zm0,72a2.08,2.08,0,1,1-2.08,2.08A2.08,2.08,0,0,1,662.15,2239.44Z" transform="translate(-253.47)"/>
      </g>
      <path d="M661.06,2165.81a74.1,74.1,0,1,0,74.1,74.1A74.13,74.13,0,0,0,661.06,2165.81Zm0,72a2.08,2.08,0,1,1-2.07,2.07A2.08,2.08,0,0,1,661.06,2237.84Z" transform="translate(-253.47)"/>
      <path id="path3271-7" data-name="path3271" class="cls-12" d="M661.06,2212.94a27,27,0,1,0,27,27A27,27,0,0,0,661.06,2212.94Zm0,25.2a1.78,1.78,0,1,1-1.77,1.77A1.77,1.77,0,0,1,661.06,2238.14Z" transform="translate(-253.47)"/>
      <path id="path3176-7" data-name="path3176" class="cls-13" d="M661.06,2166.53a73.39,73.39,0,1,1-73.38,73.38A73.4,73.4,0,0,1,661.06,2166.53Z" transform="translate(-253.47)"/>
      <g id="use3151-7" data-name="use3151">
        <path id="path3193-7" data-name="path3193" class="cls-34" d="M698.54,2239.91a37.5,37.5,0,0,1-37.48,37.49v35.19a72.71,72.71,0,0,0,72.68-72.68Z" transform="translate(-253.47)"/>
      </g>
      <path class="cls-35" d="M623.59,2239.91a37.48,37.48,0,0,1,37.47-37.48v-35.19a72.7,72.7,0,0,0-72.67,72.67Z" transform="translate(-253.47)"/>
      <path id="path3215-7" data-name="path3215" class="cls-16" d="M661.06,2213a27,27,0,1,1-27,27A27,27,0,0,1,661.06,2213Z" transform="translate(-253.47)"/>
      <path id="path3223-7" data-name="path3223" class="cls-36" d="M676.27,2224.71a21.5,21.5,0,1,0,0,30.41,21.52,21.52,0,0,0,0-30.41Zm-13.74,13.73a2.08,2.08,0,1,1-2.94,0A2.08,2.08,0,0,1,662.53,2238.44Z" transform="translate(-253.47)"/>
      <path id="path3230-7" data-name="path3230" class="cls-18" d="M678.67,2222.31a24.72,24.72,0,0,0-9.73-6l-.5,1.49a23.31,23.31,0,0,1,15.36,16.95l1.53-.35a24.74,24.74,0,0,0-6.66-12.08Z" transform="translate(-253.47)"/>
      <path id="path3232-7" data-name="path3232" class="cls-18" d="M638.08,2236l-1.56-.27a24.9,24.9,0,0,0,28.65,28.73l-.26-1.55A23.32,23.32,0,0,1,638.08,2236Z" transform="translate(-253.47)"/>
    </g>
    <g id="vinyl-7" data-name="vinyl">
      <g id="use31-8" data-name="use31">
        <path id="path3191-8" data-name="path3191" class="cls-11" d="M662.15,2463.7a74.1,74.1,0,1,0,74.1,74.1A74.13,74.13,0,0,0,662.15,2463.7Zm0,72a2.08,2.08,0,1,1-2.08,2.08A2.08,2.08,0,0,1,662.15,2535.72Z" transform="translate(-253.47)"/>
      </g>
      <path d="M661.06,2462.1a74.1,74.1,0,1,0,74.1,74.1A74.13,74.13,0,0,0,661.06,2462.1Zm0,72a2.08,2.08,0,1,1-2.07,2.08A2.08,2.08,0,0,1,661.06,2534.12Z" transform="translate(-253.47)"/>
      <path id="path3271-8" data-name="path3271" class="cls-12" d="M661.06,2509.23a27,27,0,1,0,27,27A27,27,0,0,0,661.06,2509.23Zm0,25.19a1.78,1.78,0,1,1-1.77,1.78A1.78,1.78,0,0,1,661.06,2534.42Z" transform="translate(-253.47)"/>
      <path id="path3176-8" data-name="path3176" class="cls-13" d="M661.06,2462.81a73.39,73.39,0,1,1-73.38,73.39A73.41,73.41,0,0,1,661.06,2462.81Z" transform="translate(-253.47)"/>
      <g id="use3151-8" data-name="use3151">
        <path id="path3193-8" data-name="path3193" class="cls-37" d="M698.54,2536.2a37.5,37.5,0,0,1-37.48,37.49v35.18a72.7,72.7,0,0,0,72.68-72.67Z" transform="translate(-253.47)"/>
      </g>
      <path class="cls-38" d="M623.59,2536.2a37.49,37.49,0,0,1,37.47-37.49v-35.18a72.7,72.7,0,0,0-72.67,72.67Z" transform="translate(-253.47)"/>
      <path id="path3215-8" data-name="path3215" class="cls-16" d="M661.06,2509.24a27,27,0,1,1-27,27A27,27,0,0,1,661.06,2509.24Z" transform="translate(-253.47)"/>
      <path id="path3223-8" data-name="path3223" class="cls-39" d="M676.27,2521a21.5,21.5,0,1,0,0,30.41,21.52,21.52,0,0,0,0-30.41Zm-13.74,13.74a2.08,2.08,0,1,1-2.94,0A2.08,2.08,0,0,1,662.53,2534.73Z" transform="translate(-253.47)"/>
      <path id="path3230-8" data-name="path3230" class="cls-18" d="M678.67,2518.59a24.81,24.81,0,0,0-9.73-6l-.5,1.48A23.36,23.36,0,0,1,683.8,2531l1.53-.34a24.81,24.81,0,0,0-6.66-12.09Z" transform="translate(-253.47)"/>
      <path id="path3232-8" data-name="path3232" class="cls-18" d="M638.08,2532.3l-1.56-.27a24.89,24.89,0,0,0,28.65,28.72l-.26-1.55a23.31,23.31,0,0,1-26.83-26.9Z" transform="translate(-253.47)"/>
    </g>
    <g id="vinyl-8" data-name="vinyl">
      <g id="use31-9" data-name="use31">
        <path id="path3191-9" data-name="path3191" class="cls-11" d="M662.15,2760a74.1,74.1,0,1,0,74.1,74.1A74.12,74.12,0,0,0,662.15,2760Zm0,72a2.08,2.08,0,1,1-2.08,2.08A2.08,2.08,0,0,1,662.15,2832Z" transform="translate(-253.47)"/>
      </g>
      <path d="M661.06,2758.39a74.1,74.1,0,1,0,74.1,74.09A74.12,74.12,0,0,0,661.06,2758.39Zm0,72a2.08,2.08,0,1,1-2.07,2.07A2.08,2.08,0,0,1,661.06,2830.41Z" transform="translate(-253.47)"/>
      <path id="path3271-9" data-name="path3271" class="cls-12" d="M661.06,2805.51a27,27,0,1,0,27,27A27,27,0,0,0,661.06,2805.51Zm0,25.2a1.78,1.78,0,1,1-1.77,1.77A1.77,1.77,0,0,1,661.06,2830.71Z" transform="translate(-253.47)"/>
      <path id="path3176-9" data-name="path3176" class="cls-13" d="M661.06,2759.1a73.39,73.39,0,1,1-73.38,73.38A73.4,73.4,0,0,1,661.06,2759.1Z" transform="translate(-253.47)"/>
      <g id="use3151-9" data-name="use3151">
        <path id="path3193-9" data-name="path3193" class="cls-40" d="M698.54,2832.48A37.5,37.5,0,0,1,661.06,2870v35.19a72.71,72.71,0,0,0,72.68-72.68Z" transform="translate(-253.47)"/>
      </g>
      <path class="cls-41" d="M623.59,2832.48A37.49,37.49,0,0,1,661.06,2795v-35.19a72.7,72.7,0,0,0-72.67,72.67Z" transform="translate(-253.47)"/>
      <path id="path3215-9" data-name="path3215" class="cls-16" d="M661.06,2805.52a27,27,0,1,1-27,27A27,27,0,0,1,661.06,2805.52Z" transform="translate(-253.47)"/>
      <path id="path3223-9" data-name="path3223" class="cls-42" d="M676.27,2817.28a21.5,21.5,0,1,0,0,30.41,21.52,21.52,0,0,0,0-30.41ZM662.53,2831a2.08,2.08,0,1,1-2.94,0A2.07,2.07,0,0,1,662.53,2831Z" transform="translate(-253.47)"/>
      <path id="path3230-9" data-name="path3230" class="cls-18" d="M678.67,2814.88a24.72,24.72,0,0,0-9.73-6l-.5,1.49a23.36,23.36,0,0,1,15.36,16.95l1.53-.35a24.78,24.78,0,0,0-6.66-12.08Z" transform="translate(-253.47)"/>
      <path id="path3232-9" data-name="path3232" class="cls-18" d="M638.08,2828.58l-1.56-.26A24.89,24.89,0,0,0,665.17,2857l-.26-1.55a23.32,23.32,0,0,1-26.83-26.91Z" transform="translate(-253.47)"/>
    </g>
    <g id="vinyl-9" data-name="vinyl">
      <g id="use31-10" data-name="use31">
        <path id="path3191-10" data-name="path3191" class="cls-11" d="M662.15,3056.27a74.1,74.1,0,1,0,74.1,74.1A74.13,74.13,0,0,0,662.15,3056.27Zm0,72a2.08,2.08,0,1,1-2.08,2.08A2.08,2.08,0,0,1,662.15,3128.29Z" transform="translate(-253.47)"/>
      </g>
      <path d="M661.06,3054.67a74.1,74.1,0,1,0,74.1,74.1A74.13,74.13,0,0,0,661.06,3054.67Zm0,72a2.08,2.08,0,1,1-2.07,2.08A2.08,2.08,0,0,1,661.06,3126.69Z" transform="translate(-253.47)"/>
      <path id="path3271-10" data-name="path3271" class="cls-12" d="M661.06,3101.8a27,27,0,1,0,27,27A27,27,0,0,0,661.06,3101.8Zm0,25.19a1.78,1.78,0,1,1-1.77,1.78A1.78,1.78,0,0,1,661.06,3127Z" transform="translate(-253.47)"/>
      <path id="path3176-10" data-name="path3176" class="cls-13" d="M661.06,3055.38a73.39,73.39,0,1,1-73.38,73.39A73.41,73.41,0,0,1,661.06,3055.38Z" transform="translate(-253.47)"/>
      <g id="use3151-10" data-name="use3151">
        <path id="path3193-10" data-name="path3193" class="cls-43" d="M698.54,3128.77a37.5,37.5,0,0,1-37.48,37.49v35.18a72.7,72.7,0,0,0,72.68-72.67Z" transform="translate(-253.47)"/>
      </g>
      <path class="cls-44" d="M623.59,3128.77a37.49,37.49,0,0,1,37.47-37.49V3056.1a72.7,72.7,0,0,0-72.67,72.67Z" transform="translate(-253.47)"/>
      <path id="path3215-10" data-name="path3215" class="cls-16" d="M661.06,3101.81a27,27,0,1,1-27,27A27,27,0,0,1,661.06,3101.81Z" transform="translate(-253.47)"/>
      <path id="path3223-10" data-name="path3223" class="cls-45" d="M676.27,3113.56a21.51,21.51,0,1,0,0,30.42,21.52,21.52,0,0,0,0-30.42Zm-13.74,13.74a2.08,2.08,0,1,1-2.94,0A2.08,2.08,0,0,1,662.53,3127.3Z" transform="translate(-253.47)"/>
      <path id="path3230-10" data-name="path3230" class="cls-18" d="M678.67,3111.17a24.72,24.72,0,0,0-9.73-6l-.5,1.48a23.36,23.36,0,0,1,15.36,17l1.53-.34a24.74,24.74,0,0,0-6.66-12.08Z" transform="translate(-253.47)"/>
      <path id="path3232-10" data-name="path3232" class="cls-18" d="M638.08,3124.87l-1.56-.27a24.89,24.89,0,0,0,28.65,28.72l-.26-1.55a23.31,23.31,0,0,1-26.83-26.9Z" transform="translate(-253.47)"/>
    </g>
    <g id="vinyl-10" data-name="vinyl">
      <g id="use31-11" data-name="use31">
        <path id="path3191-11" data-name="path3191" class="cls-11" d="M662.15,3352.56a74.1,74.1,0,1,0,74.1,74.1A74.13,74.13,0,0,0,662.15,3352.56Zm0,72a2.08,2.08,0,1,1-2.08,2.08A2.08,2.08,0,0,1,662.15,3424.58Z" transform="translate(-253.47)"/>
      </g>
      <path d="M661.06,3351a74.1,74.1,0,1,0,74.1,74.1A74.12,74.12,0,0,0,661.06,3351Zm0,72a2.08,2.08,0,1,1-2.07,2.08A2.08,2.08,0,0,1,661.06,3423Z" transform="translate(-253.47)"/>
      <path id="path3271-11" data-name="path3271" class="cls-12" d="M661.06,3398.08a27,27,0,1,0,27,27A27,27,0,0,0,661.06,3398.08Zm0,25.2a1.78,1.78,0,1,1-1.77,1.78A1.77,1.77,0,0,1,661.06,3423.28Z" transform="translate(-253.47)"/>
      <path id="path3176-11" data-name="path3176" class="cls-13" d="M661.06,3351.67a73.39,73.39,0,1,1-73.38,73.39A73.41,73.41,0,0,1,661.06,3351.67Z" transform="translate(-253.47)"/>
      <g id="use3151-11" data-name="use3151">
        <path id="path3193-11" data-name="path3193" class="cls-46" d="M698.54,3425.06a37.5,37.5,0,0,1-37.48,37.48v35.19a72.7,72.7,0,0,0,72.68-72.67Z" transform="translate(-253.47)"/>
      </g>
      <path class="cls-47" d="M623.59,3425.06a37.49,37.49,0,0,1,37.47-37.49v-35.19a72.7,72.7,0,0,0-72.67,72.68Z" transform="translate(-253.47)"/>
      <path id="path3215-11" data-name="path3215" class="cls-16" d="M661.06,3398.09a27,27,0,1,1-27,27A27,27,0,0,1,661.06,3398.09Z" transform="translate(-253.47)"/>
      <path id="path3223-11" data-name="path3223" class="cls-48" d="M676.27,3409.85a21.5,21.5,0,1,0,0,30.41,21.52,21.52,0,0,0,0-30.41Zm-13.74,13.74a2.08,2.08,0,1,1-2.94,0A2.08,2.08,0,0,1,662.53,3423.59Z" transform="translate(-253.47)"/>
      <path id="path3230-11" data-name="path3230" class="cls-18" d="M678.67,3407.45a24.72,24.72,0,0,0-9.73-6l-.5,1.49a23.36,23.36,0,0,1,15.36,17l1.53-.35a24.83,24.83,0,0,0-6.66-12.08Z" transform="translate(-253.47)"/>
      <path id="path3232-11" data-name="path3232" class="cls-18" d="M638.08,3421.15l-1.56-.26a24.89,24.89,0,0,0,28.65,28.72l-.26-1.55a23.32,23.32,0,0,1-26.83-26.91Z" transform="translate(-253.47)"/>
    </g>
    <g id="vinyl-11" data-name="vinyl">
      <g id="use31-12" data-name="use31">
        <path id="path3191-12" data-name="path3191" class="cls-11" d="M662.15,3648.84a74.1,74.1,0,1,0,74.1,74.1A74.13,74.13,0,0,0,662.15,3648.84Zm0,72a2.08,2.08,0,1,1-2.08,2.07A2.08,2.08,0,0,1,662.15,3720.87Z" transform="translate(-253.47)"/>
      </g>
      <path d="M661.06,3647.24a74.1,74.1,0,1,0,74.1,74.1A74.13,74.13,0,0,0,661.06,3647.24Zm0,72a2.08,2.08,0,1,1-2.07,2.08A2.08,2.08,0,0,1,661.06,3719.26Z" transform="translate(-253.47)"/>
      <path id="path3271-12" data-name="path3271" class="cls-12" d="M661.06,3694.37a27,27,0,1,0,27,27A27,27,0,0,0,661.06,3694.37Zm0,25.19a1.78,1.78,0,1,1-1.77,1.78A1.78,1.78,0,0,1,661.06,3719.56Z" transform="translate(-253.47)"/>
      <path id="path3176-12" data-name="path3176" class="cls-13" d="M661.06,3648a73.39,73.39,0,1,1-73.38,73.38A73.4,73.4,0,0,1,661.06,3648Z" transform="translate(-253.47)"/>
      <g id="use3151-12" data-name="use3151">
        <path id="path3193-12" data-name="path3193" class="cls-49" d="M698.54,3721.34a37.5,37.5,0,0,1-37.48,37.49V3794a72.7,72.7,0,0,0,72.68-72.67Z" transform="translate(-253.47)"/>
      </g>
      <path class="cls-50" d="M623.59,3721.34a37.49,37.49,0,0,1,37.47-37.49v-35.18a72.7,72.7,0,0,0-72.67,72.67Z" transform="translate(-253.47)"/>
      <path id="path3215-12" data-name="path3215" class="cls-16" d="M661.06,3694.38a27,27,0,1,1-27,27A27,27,0,0,1,661.06,3694.38Z" transform="translate(-253.47)"/>
      <path id="path3223-12" data-name="path3223" class="cls-51" d="M676.27,3706.14a21.5,21.5,0,1,0,0,30.41,21.5,21.5,0,0,0,0-30.41Zm-13.74,13.73a2.08,2.08,0,1,1-2.94,0A2.08,2.08,0,0,1,662.53,3719.87Z" transform="translate(-253.47)"/>
      <path id="path3230-12" data-name="path3230" class="cls-18" d="M678.67,3703.74a24.72,24.72,0,0,0-9.73-6l-.5,1.49a23.32,23.32,0,0,1,15.36,16.94l1.53-.34a24.74,24.74,0,0,0-6.66-12.08Z" transform="translate(-253.47)"/>
      <path id="path3232-12" data-name="path3232" class="cls-18" d="M638.08,3717.44l-1.56-.27a24.88,24.88,0,0,0,28.65,28.72l-.26-1.55a23.31,23.31,0,0,1-26.83-26.9Z" transform="translate(-253.47)"/>
    </g>
    <g id="vinyl-12" data-name="vinyl">
      <g id="use31-13" data-name="use31">
        <path id="path3191-13" data-name="path3191" class="cls-11" d="M662.15,3945.13a74.1,74.1,0,1,0,74.1,74.1A74.13,74.13,0,0,0,662.15,3945.13Zm0,72a2.08,2.08,0,1,1-2.08,2.08A2.08,2.08,0,0,1,662.15,4017.15Z" transform="translate(-253.47)"/>
      </g>
      <path d="M661.06,3943.53a74.1,74.1,0,1,0,74.1,74.1A74.12,74.12,0,0,0,661.06,3943.53Zm0,72a2.08,2.08,0,1,1-2.07,2.08A2.08,2.08,0,0,1,661.06,4015.55Z" transform="translate(-253.47)"/>
      <path id="path3271-13" data-name="path3271" class="cls-12" d="M661.06,3990.65a27,27,0,1,0,27,27A27,27,0,0,0,661.06,3990.65Zm0,25.2a1.78,1.78,0,1,1-1.77,1.78A1.77,1.77,0,0,1,661.06,4015.85Z" transform="translate(-253.47)"/>
      <path id="path3176-13" data-name="path3176" class="cls-13" d="M661.06,3944.24a73.39,73.39,0,1,1-73.38,73.39A73.41,73.41,0,0,1,661.06,3944.24Z" transform="translate(-253.47)"/>
      <g id="use3151-13" data-name="use3151">
        <path id="path3193-13" data-name="path3193" class="cls-52" d="M698.54,4017.63a37.5,37.5,0,0,1-37.48,37.49v35.18a72.7,72.7,0,0,0,72.68-72.67Z" transform="translate(-253.47)"/>
      </g>
      <path class="cls-53" d="M623.59,4017.63a37.49,37.49,0,0,1,37.47-37.49V3945a72.7,72.7,0,0,0-72.67,72.67Z" transform="translate(-253.47)"/>
      <path id="path3215-13" data-name="path3215" class="cls-16" d="M661.06,3990.67a27,27,0,1,1-27,27A27,27,0,0,1,661.06,3990.67Z" transform="translate(-253.47)"/>
      <path id="path3223-13" data-name="path3223" class="cls-54" d="M676.27,4002.42a21.5,21.5,0,1,0,0,30.41,21.52,21.52,0,0,0,0-30.41Zm-13.74,13.74a2.08,2.08,0,1,1-2.94,0A2.08,2.08,0,0,1,662.53,4016.16Z" transform="translate(-253.47)"/>
      <path id="path3230-13" data-name="path3230" class="cls-18" d="M678.67,4000a24.84,24.84,0,0,0-9.73-6l-.5,1.49a23.36,23.36,0,0,1,15.36,16.95l1.53-.35a24.83,24.83,0,0,0-6.66-12.08Z" transform="translate(-253.47)"/>
      <path id="path3232-13" data-name="path3232" class="cls-18" d="M638.08,4013.72l-1.56-.26a24.89,24.89,0,0,0,28.65,28.72l-.26-1.55a23.31,23.31,0,0,1-26.83-26.91Z" transform="translate(-253.47)"/>
    </g>
    <g id="vinyl-13" data-name="vinyl">
      <g id="use31-14" data-name="use31">
        <path id="path3191-14" data-name="path3191" class="cls-11" d="M662.15,4241.42a74.1,74.1,0,1,0,74.1,74.1A74.12,74.12,0,0,0,662.15,4241.42Zm0,72a2.08,2.08,0,1,1-2.08,2.08A2.08,2.08,0,0,1,662.15,4313.44Z" transform="translate(-253.47)"/>
      </g>
      <path d="M661.06,4239.81a74.1,74.1,0,1,0,74.1,74.1A74.13,74.13,0,0,0,661.06,4239.81Zm0,72a2.08,2.08,0,1,1-2.07,2.07A2.08,2.08,0,0,1,661.06,4311.84Z" transform="translate(-253.47)"/>
      <path id="path3271-14" data-name="path3271" class="cls-12" d="M661.06,4286.94a27,27,0,1,0,27,27A27,27,0,0,0,661.06,4286.94Zm0,25.2a1.78,1.78,0,1,1-1.77,1.77A1.77,1.77,0,0,1,661.06,4312.14Z" transform="translate(-253.47)"/>
      <path id="path3176-14" data-name="path3176" class="cls-13" d="M661.06,4240.53a73.39,73.39,0,1,1-73.38,73.38A73.4,73.4,0,0,1,661.06,4240.53Z" transform="translate(-253.47)"/>
      <g id="use3151-14" data-name="use3151">
        <path id="path3193-14" data-name="path3193" class="cls-55" d="M698.54,4313.91a37.5,37.5,0,0,1-37.48,37.49v35.19a72.71,72.71,0,0,0,72.68-72.68Z" transform="translate(-253.47)"/>
      </g>
      <path class="cls-56" d="M623.59,4313.91a37.48,37.48,0,0,1,37.47-37.48v-35.19a72.7,72.7,0,0,0-72.67,72.67Z" transform="translate(-253.47)"/>
      <path id="path3215-14" data-name="path3215" class="cls-16" d="M661.06,4287a27,27,0,1,1-27,27A27,27,0,0,1,661.06,4287Z" transform="translate(-253.47)"/>
      <path id="path3223-14" data-name="path3223" class="cls-57" d="M676.27,4298.71a21.5,21.5,0,1,0,0,30.41,21.52,21.52,0,0,0,0-30.41Zm-13.74,13.73a2.08,2.08,0,1,1-2.94,0A2.08,2.08,0,0,1,662.53,4312.44Z" transform="translate(-253.47)"/>
      <path id="path3230-14" data-name="path3230" class="cls-18" d="M678.67,4296.31a24.72,24.72,0,0,0-9.73-6l-.5,1.49a23.31,23.31,0,0,1,15.36,16.95l1.53-.35a24.74,24.74,0,0,0-6.66-12.08Z" transform="translate(-253.47)"/>
      <path id="path3232-14" data-name="path3232" class="cls-18" d="M638.08,4310l-1.56-.27a24.9,24.9,0,0,0,28.65,28.73l-.26-1.55A23.32,23.32,0,0,1,638.08,4310Z" transform="translate(-253.47)"/>
    </g>
    <g id="vinyl-14" data-name="vinyl">
      <g id="use31-15" data-name="use31">
        <path id="path3191-15" data-name="path3191" class="cls-11" d="M662.15,4537.7a74.1,74.1,0,1,0,74.1,74.1A74.13,74.13,0,0,0,662.15,4537.7Zm0,72a2.08,2.08,0,1,1-2.08,2.08A2.08,2.08,0,0,1,662.15,4609.72Z" transform="translate(-253.47)"/>
      </g>
      <path d="M661.06,4536.1a74.1,74.1,0,1,0,74.1,74.1A74.13,74.13,0,0,0,661.06,4536.1Zm0,72a2.08,2.08,0,1,1-2.07,2.08A2.08,2.08,0,0,1,661.06,4608.12Z" transform="translate(-253.47)"/>
      <path id="path3271-15" data-name="path3271" class="cls-12" d="M661.06,4583.23a27,27,0,1,0,27,27A27,27,0,0,0,661.06,4583.23Zm0,25.19a1.78,1.78,0,1,1-1.77,1.78A1.78,1.78,0,0,1,661.06,4608.42Z" transform="translate(-253.47)"/>
      <path id="path3176-15" data-name="path3176" class="cls-13" d="M661.06,4536.81a73.39,73.39,0,1,1-73.38,73.39A73.41,73.41,0,0,1,661.06,4536.81Z" transform="translate(-253.47)"/>
      <g id="use3151-15" data-name="use3151">
        <path id="path3193-15" data-name="path3193" class="cls-58" d="M698.54,4610.2a37.5,37.5,0,0,1-37.48,37.49v35.18a72.7,72.7,0,0,0,72.68-72.67Z" transform="translate(-253.47)"/>
      </g>
      <path class="cls-59" d="M623.59,4610.2a37.49,37.49,0,0,1,37.47-37.49v-35.18a72.7,72.7,0,0,0-72.67,72.67Z" transform="translate(-253.47)"/>
      <path id="path3215-15" data-name="path3215" class="cls-16" d="M661.06,4583.24a27,27,0,1,1-27,27A27,27,0,0,1,661.06,4583.24Z" transform="translate(-253.47)"/>
      <path id="path3223-15" data-name="path3223" class="cls-60" d="M676.27,4595a21.5,21.5,0,1,0,0,30.41,21.52,21.52,0,0,0,0-30.41Zm-13.74,13.74a2.08,2.08,0,1,1-2.94,0A2.08,2.08,0,0,1,662.53,4608.73Z" transform="translate(-253.47)"/>
      <path id="path3230-15" data-name="path3230" class="cls-18" d="M678.67,4592.59a24.81,24.81,0,0,0-9.73-6l-.5,1.48a23.36,23.36,0,0,1,15.36,17l1.53-.34a24.81,24.81,0,0,0-6.66-12.09Z" transform="translate(-253.47)"/>
      <path id="path3232-15" data-name="path3232" class="cls-18" d="M638.08,4606.3l-1.56-.27a24.89,24.89,0,0,0,28.65,28.72l-.26-1.55a23.31,23.31,0,0,1-26.83-26.9Z" transform="translate(-253.47)"/>
    </g>
  </g>
</svg>
